<svg xmlns="http://www.w3.org/2000/svg" xmlns:xlink="http://www.w3.org/1999/xlink" fill="none" version="1.1" width="220" height="42" viewBox="0 0 220 42"><defs><clipPath id="master_svg0_44_18613/32_754"><rect x="0" y="0" width="220" height="42" rx="0"/></clipPath><linearGradient x1="0.0008558275876566768" y1="0.4975842833518982" x2="1.2015080451965332" y2="0.4975842833518982" id="master_svg1_10_0412"><stop offset="0%" stop-color="#CEB97D" stop-opacity="1"/><stop offset="100%" stop-color="#D5B765" stop-opacity="1"/></linearGradient><linearGradient x1="0.4992740750312805" y1="0.0003229569992981851" x2="0.4992740750312805" y2="0.9995518922805786" id="master_svg2_10_0418"><stop offset="0%" stop-color="#949293" stop-opacity="1"/><stop offset="100%" stop-color="#171915" stop-opacity="1"/></linearGradient></defs><g clip-path="url(#master_svg0_44_18613/32_754)"><path d="M16.004568,0.47019804C1.6358143,3.7224009,-0.38339397,16.326321,0.051119197,22.425833C0.3706142,26.888361,4.1108356,38.935009,16.004568,37.149998C27.898302,35.36499,37.904884,18.851458,41.095577,8.1413937L24.562775,11.711416C24.562775,11.711416,31.672604,11.506793,30.151808,16.665911C28.635271,21.820675,24.085663,27.432575,18.573309,30.10574C12.639221,32.983528,7.3015251,29.117453,6.2876606,22.125431C5.5421724,16.988085,7.9192152,13.670575,10.355897,11.158499C18.615908,2.6383364,35.438385,7.396914,35.438385,7.396914C35.438385,7.396914,30.799318,0.25686997,20.869413,0.026124371C18.062117,-0.095778823,17.657423,0.18721072,16.004568,0.4658466L16.004568,0.47019804Z" fill-rule="evenodd" fill="url(#master_svg1_10_0412)" fill-opacity="1" style="mix-blend-mode:passthrough"/><path d="M13.3030881556,17.245007508984376L23.833641125,15.037689208984375C23.833641125,15.037689208984375,24.063678125,21.489851008984374,21.967790625,24.197843508984377C19.663166525,27.180117208984377,17.908074825,26.958080208984377,17.908074825,26.958080208984377C17.908074825,26.958080208984377,19.914502625,24.306685408984375,18.581144825,20.997885708984377C17.247785325,17.684730808984376,13.298828125,17.245009408984373,13.298828125,17.245009408984373" fill-rule="evenodd" fill="#D1B76D" fill-opacity="1" style="mix-blend-mode:passthrough"/><path d="M34.828537374999996,36.074697208984375C28.289539375,42.148088208984376,17.703605175,44.29445420898438,10.146484375,38.961191208984374C15.147646875,39.62730420898437,21.154152375000002,40.45014920898437,30.602684375,30.819797208984376C39.655044375,21.589984908984377,40.353672375,15.037689208984375,40.353672375,15.037689208984375C40.353672375,15.037689208984375,44.072593375,27.493582208984375,34.828537374999996,36.074697208984375Z" fill-rule="evenodd" fill="url(#master_svg2_10_0418)" fill-opacity="1" style="mix-blend-mode:passthrough"/><path d="M49.760284423828125,12.482072830200195L54.386572323828126,12.482072830200195L58.62520502382812,19.839800330200195L63.081098423828124,12.482072830200195L67.73294442382813,12.482072830200195L60.533660423828124,23.235676830200195L60.533660423828124,31.359651830200196L56.60174322382812,31.359651830200196L56.60174322382812,23.096356830200193L49.760284423828125,12.482072830200195Z" fill="#020002" fill-opacity="1" style="mix-blend-mode:passthrough"/><path d="M70.36184692382812,12.482072830200195L74.29376342382812,12.482072830200195L74.29376342382812,31.359651830200196L70.36184692382812,31.359651830200196L70.36184692382812,12.482072830200195Z" fill="#020002" fill-opacity="1" style="mix-blend-mode:passthrough"/><path d="M82.49073959882813,31.359651830200196L78.75051879882812,31.359651830200196L78.75051879882812,12.482072830200195L83.76446199882812,12.482072830200195L91.12989079882813,26.548831830200193L91.12989079882813,12.482072830200195L94.87011179882812,12.482072830200195L94.87011179882812,31.359651830200196L90.05212779882812,31.359651830200196L82.49074629882813,17.519285630200194L82.49073959882813,31.359651830200196Z" fill="#020002" fill-opacity="1" style="mix-blend-mode:passthrough"/><path d="M107.38595299882813,12.342844009399414C109.04732429882813,12.342844009399414,110.50848429882812,12.591003929399415,111.77368429882813,13.091677549399414C113.03888529882812,13.592351109399415,114.02292929882813,14.315063709399414,114.72156329882813,15.255459509399413C115.29239229882813,16.030415009399412,115.73116729882813,17.009994009399414,116.03788229882812,18.198551609399413C116.34459729882812,19.387108809399415,116.49369829882812,20.719335509399414,116.49369829882812,22.190879809399412C116.49369829882812,23.849635009399414,116.24662829882813,25.329887009399414,115.76098829882812,26.635993009399414C115.27109929882812,27.937744009399417,114.56394929882812,28.965214009399414,113.64380129882812,29.718403009399413C112.94091529882813,30.284382009399415,112.08466429882813,30.719751009399413,111.07079929882812,31.020153009399415C110.05693229882813,31.320559009399414,108.91953129882812,31.472937009399413,107.66285229882813,31.472937009399413C105.87368149882812,31.472937009399413,104.30602309882812,31.189947009399415,102.96840429882812,30.623970009399414C101.63078549882812,30.057989009399414,100.59988259882813,29.239498009399416,99.87995279882813,28.164138009399416C98.81071197882812,26.618578009399414,98.27395629882812,24.567991009399414,98.27395629882812,22.021086709399412C98.27395629882812,20.192538309399414,98.50825391882813,18.612150209399413,98.98110669882813,17.279923909399415C99.44970189882812,15.947695509399415,100.14833069882812,14.915872609399415,101.07273529882812,14.180100409399413C101.79266499882813,13.574938509399415,102.69576879882813,13.117801069399414,103.78631069882813,12.808689859399415C104.87685249882813,12.499578609399414,106.07389259882812,12.342845670198514,107.38595299882813,12.342844009399414ZM107.41151139882813,15.538448109399415C106.50840759882813,15.538448109399415,105.71179529882812,15.703888609399414,105.03020999882813,16.034768109399415C104.34861849882813,16.365647309399414,103.82039069882812,16.831493409399414,103.44977239882813,17.436655009399413C102.87894299882812,18.359635809399414,102.58926389882812,19.844242109399413,102.58926389882812,21.881767309399415C102.58926389882812,24.106501009399416,102.97265529882813,25.734779009399414,103.73944469882812,26.762247009399417C104.50623369882813,27.789717009399414,105.72883219882813,28.303452009399415,107.40724659882812,28.303452009399415C109.08566829882812,28.303452009399415,110.25288629882813,27.789717009399414,111.01966829882812,26.762247009399417C111.78645129882813,25.734776009399415,112.16985529882813,24.123913009399416,112.16985529882813,21.938362109399414C112.16985529882813,19.752811909399412,111.79071529882813,18.089704509399414,111.03244829882813,17.070941909399416C110.27418029882813,16.052179609399413,109.06862429882813,15.542799209399414,107.40298269882813,15.542799209399414L107.41151139882813,15.538448109399415Z" fill="#020002" fill-opacity="1" style="mix-blend-mode:passthrough"/><path d="M133.46901177382813,12.482072830200195L137.9845436738281,12.482072830200195L145.62686567382812,31.359651830200196L141.03039367382812,31.359651830200196L139.25825967382812,26.971135830200197L132.22510577382812,26.971135830200197L130.4529719738281,31.359651830200196L125.82669067382812,31.359651830200196L133.46901177382813,12.482072830200195ZM133.1069149738281,23.605738830200195L138.36793567382813,23.605738830200195L135.73529907382812,17.009904830200195L133.1069149738281,23.605738830200195Z" fill="#020002" fill-opacity="1" style="mix-blend-mode:passthrough"/><path d="M148.25377976882814,27.98980980090332L156.67141249882812,27.98980980090332C157.40838529882814,27.98980980090332,157.99199529882813,27.95062780090332,158.41372429882813,27.87661280090332C158.83971729882813,27.802601800903318,159.17199129882812,27.68940480090332,159.41054629882814,27.53702680090332C160.01971429882812,27.15825580090332,160.32642929882812,26.58356980090332,160.32642929882812,25.812966800903318C160.32642929882812,25.37759880090332,160.21993129882813,24.98141280090332,160.00693529882813,24.62441080090332C159.79393729882813,24.26740980090332,159.50426529882813,23.99312680090332,159.13365329882814,23.80591880090332C158.92917229882812,23.69272280090332,158.65654229882813,23.60564880090332,158.31574029882813,23.553403800903318C157.97495029882813,23.49680480090332,157.58303129882813,23.46632980090332,157.13999459882814,23.46632980090332L153.73204799882814,23.46632980090332C152.62446259882813,23.46632980090332,151.69580029882812,23.366194800903322,150.95031189882812,23.17027880090332C150.20482349882812,22.97436280090332,149.58712789882813,22.65654380090332,149.1100174988281,22.221175200903318C148.55623139882812,21.72920890090332,148.12597393882814,21.12404630090332,147.82352229882812,20.39698220090332C147.52107065882814,19.66991710090332,147.36770629882812,18.89060740090332,147.36770629882812,18.06340650090332C147.36770629882812,16.85743520090332,147.66164275882812,15.77772190090332,148.25376677882812,14.82426550090332C148.84590379882812,13.87080810090332,149.62120179882814,13.22646290090332,150.57968689882813,12.886875120903321C150.78416819882813,12.812862430903321,151.00568009882812,12.74755734090332,151.24423549882812,12.69095896090332C151.48279049882814,12.63436143090332,151.75543259882812,12.590824402903321,152.06214859882812,12.56470169090332C152.3688640988281,12.538578986903321,152.72243309882813,12.51681089390332,153.1271318988281,12.50810415590332C153.53183079882814,12.49939658540332,154.00467679882811,12.49504280090332,154.53716849882812,12.49504280090332L163.67473229882813,12.49504280090332L163.67473229882813,15.86044120090332L155.42324259882812,15.86044120090332C154.55421209882812,15.86044120090332,153.92375039882813,15.877856300903321,153.52756639882813,15.91703960090332C153.13139579882812,15.956222800903321,152.82041599882814,16.03894210090332,152.59890409882811,16.16955400090332C152.00676729882812,16.49172760090332,151.7128438988281,17.08382750090332,151.7128438988281,17.950211500903322C151.7128438988281,18.74258180090332,151.99826479882813,19.31726840090332,152.57334569882812,19.674270200903322C152.83319519882812,19.84406380090332,153.13991119882812,19.95726060090332,153.50200799882813,20.01385740090332C153.86410469882813,20.07045560090332,154.39233259882812,20.10093120090332,155.09521909882812,20.10093120090332L158.06012929882812,20.10093120090332C159.40627029882813,20.10093120090332,160.48829629882812,20.21848110090332,161.29768129882814,20.45358040090332C162.10706629882813,20.68867970090332,162.78439429882812,21.08921810090332,163.32115029882812,21.655197100903322C163.74714229882812,22.09056470090332,164.08368129882814,22.68266680090332,164.33075129882812,23.44020680090332C164.57782129882813,24.193393800903323,164.70562729882812,24.98576480090332,164.70562729882812,25.817317800903318C164.70562729882812,26.836081800903322,164.4926322988281,27.77647680090332,164.07090229882812,28.63415380090332C163.6449092988281,29.49182880090332,163.0740792988281,30.14923680090332,162.35415029882813,30.60201680090332C162.13263729882812,30.75439680090332,161.88130329882813,30.87629880090332,161.6086602988281,30.96772580090332C161.33176829882814,31.06350680090332,161.00374529882814,31.13751980090332,160.62461729882813,31.19411680090332C160.24547629882812,31.25071380090332,159.80670429882812,31.29425080090332,159.30829929882813,31.32037180090332C158.80988129882812,31.35084680090332,158.21775729882813,31.36390880090332,157.53616529882814,31.36390880090332L148.2580308288281,31.36390880090332L148.2580308288281,27.99415780090332L148.25377976882814,27.98980980090332Z" fill="#020002" fill-opacity="1" style="mix-blend-mode:passthrough"/><path d="M168.19127976882814,27.98980980090332L176.60891249882812,27.98980980090332C177.34588529882814,27.98980980090332,177.92949529882813,27.95062780090332,178.35122429882813,27.87661280090332C178.77721729882813,27.802601800903318,179.10949129882812,27.68940480090332,179.34804629882814,27.53702680090332C179.95721429882812,27.15825580090332,180.26392929882812,26.58356980090332,180.26392929882812,25.812966800903318C180.26392929882812,25.37759880090332,180.15743129882813,24.98141280090332,179.94443529882813,24.62441080090332C179.73143729882813,24.26740980090332,179.44176529882813,23.99312680090332,179.07115329882814,23.80591880090332C178.86667229882812,23.69272280090332,178.59404229882813,23.60564880090332,178.25324029882813,23.553403800903318C177.91245029882813,23.49680480090332,177.52053129882813,23.46632980090332,177.07749459882814,23.46632980090332L173.66954799882814,23.46632980090332C172.56196259882813,23.46632980090332,171.63330029882812,23.366194800903322,170.88781189882812,23.17027880090332C170.14232349882812,22.97436280090332,169.52462789882813,22.65654380090332,169.0475174988281,22.221175200903318C168.49373139882812,21.72920890090332,168.06347393882814,21.12404630090332,167.76102229882812,20.39698220090332C167.45857065882814,19.66991710090332,167.30520629882812,18.89060740090332,167.30520629882812,18.06340650090332C167.30520629882812,16.85743520090332,167.59914275882812,15.77772190090332,168.19126677882812,14.82426550090332C168.78340379882812,13.87080810090332,169.55870179882814,13.22646290090332,170.51718689882813,12.886875120903321C170.72166819882813,12.812862430903321,170.94318009882812,12.74755734090332,171.18173549882812,12.69095896090332C171.42029049882814,12.63436143090332,171.69293259882812,12.590824402903321,171.99964859882812,12.56470169090332C172.3063640988281,12.538578986903321,172.65993309882813,12.51681089390332,173.0646318988281,12.50810415590332C173.46933079882814,12.49939658540332,173.94217679882811,12.49504280090332,174.47466849882812,12.49504280090332L183.61223229882813,12.49504280090332L183.61223229882813,15.86044120090332L175.36074259882812,15.86044120090332C174.49171209882812,15.86044120090332,173.86125039882813,15.877856300903321,173.46506639882813,15.91703960090332C173.06889579882812,15.956222800903321,172.75791599882814,16.03894210090332,172.53640409882811,16.16955400090332C171.94426729882812,16.49172760090332,171.6503438988281,17.08382750090332,171.6503438988281,17.950211500903322C171.6503438988281,18.74258180090332,171.93576479882813,19.31726840090332,172.51084569882812,19.674270200903322C172.77069519882812,19.84406380090332,173.07741119882812,19.95726060090332,173.43950799882813,20.01385740090332C173.80160469882813,20.07045560090332,174.32983259882812,20.10093120090332,175.03271909882812,20.10093120090332L177.99762929882812,20.10093120090332C179.34377029882813,20.10093120090332,180.42579629882812,20.21848110090332,181.23518129882814,20.45358040090332C182.04456629882813,20.68867970090332,182.72189429882812,21.08921810090332,183.25865029882812,21.655197100903322C183.68464229882812,22.09056470090332,184.02118129882814,22.68266680090332,184.26825129882812,23.44020680090332C184.51532129882813,24.193393800903323,184.64312729882812,24.98576480090332,184.64312729882812,25.817317800903318C184.64312729882812,26.836081800903322,184.4301322988281,27.77647680090332,184.00840229882812,28.63415380090332C183.5824092988281,29.49182880090332,183.0115792988281,30.14923680090332,182.29165029882813,30.60201680090332C182.07013729882812,30.75439680090332,181.81880329882813,30.87629880090332,181.5461602988281,30.96772580090332C181.26926829882814,31.06350680090332,180.94124529882814,31.13751980090332,180.56211729882813,31.19411680090332C180.18297629882812,31.25071380090332,179.74420429882812,31.29425080090332,179.24579929882813,31.32037180090332C178.74738129882812,31.35084680090332,178.15525729882813,31.36390880090332,177.47366529882814,31.36390880090332L168.1955308288281,31.36390880090332L168.1955308288281,27.99415780090332L168.19127976882814,27.98980980090332Z" fill="#020002" fill-opacity="1" style="mix-blend-mode:passthrough"/><path d="M202.02800342382812,15.851600616918946L196.90330412382812,15.851600616918946C196.23875522382812,15.851600616918946,195.67217732382812,15.877723216918945,195.19933132382812,15.921259416918945C194.73073582382813,15.969150316918945,194.32178542382812,16.043161916918944,193.98099612382813,16.147651216918945C193.64020682382812,16.252140316918947,193.34627052382814,16.391458016918946,193.10771512382811,16.574312216918944C192.86915972382812,16.752813316918946,192.64764782382812,16.974850216918945,192.4431667238281,17.240425116918946C192.29406642382813,17.427634216918946,192.17905282382813,17.606134916918947,192.09811302382812,17.780283016918943C192.01290892382812,17.950076616918945,191.94476172382812,18.141639716918945,191.88938042382813,18.359324016918947C191.83399912382814,18.577008216918944,191.78714612382814,18.833876116918944,191.75305942382812,19.138633716918946C191.71472172382812,19.439037816918947,191.68063502382813,19.826517116918946,191.64229722382814,20.301068816918946L202.02801642382812,20.301068816918946L202.02801642382812,23.666466716918947L191.64229722382814,23.666466716918947C191.71472172382812,24.476252716918946,191.86380912382813,25.155427716918943,192.08533382382814,25.703992716918947C192.30684562382814,26.252555716918945,192.63060472382813,26.692278716918945,193.05659822382813,27.031865716918944C193.48259112382812,27.371452716918945,194.01934722382813,27.615258716918945,194.6753673238281,27.767637716918948C195.33140082382812,27.920017716918945,196.12800602382814,27.994028716918947,197.06944752382813,27.994028716918947L202.02801642382812,27.994028716918947L202.02801642382812,31.363780716918946L196.90331742382813,31.363780716918946C195.92353822382813,31.363780716918946,195.06302312382812,31.324600716918944,194.31328342382812,31.250583716918946C193.56353092382813,31.176572716918944,192.90324642382814,31.059020716918944,192.33241702382813,30.897937716918946C191.76158762382812,30.736848716918946,191.25891872382812,30.519164716918944,190.82439712382813,30.244884716918946C190.38988852382812,29.970601716918946,189.98945382382811,29.635366716918945,189.61884162382813,29.239185716918946C188.82650042382812,28.390215716918945,188.22158422382813,27.332269716918944,187.80410605382812,26.069700716918945C187.38662789382812,24.807132716918943,187.18215942382812,23.392184716918948,187.18215942382812,21.824858616918945C187.18215942382812,18.411569116918947,188.22584832382813,15.808066116918946,190.30894872382814,14.014346516918945C190.64122322382812,13.731357216918946,190.97349742382812,13.491903916918945,191.30577182382814,13.291634856918945C191.63804582382812,13.091365756918945,192.00014302382812,12.938986596918946,192.40057752382813,12.825790676918945C192.79674812382814,12.712594766918945,193.23552082382813,12.625521556918946,193.71689562382812,12.573276966918945C194.19826982382813,12.521032379918946,194.7520561238281,12.490556716918945,195.37826632382811,12.490556716918945L202.02376542382814,12.490556716918945L202.02376542382814,15.855955116918945L202.02800342382812,15.851600616918946Z" fill="#020002" fill-opacity="1" style="mix-blend-mode:passthrough"/><path d="M204.07669067382812,15.85195731418457L204.07669067382812,12.48655891418457L220.00032367382812,12.48655891418457L220.00032367382812,15.85195731418457L213.90862367382812,15.85195731418457L213.90862367382812,31.35978291418457L209.97670077382813,31.35978291418457L209.97670077382813,15.85195731418457L204.08095476732814,15.85195731418457L204.07669067382812,15.85195731418457Z" fill="#020002" fill-opacity="1" style="mix-blend-mode:passthrough"/></g></svg>